# xmcd CD database file
#
# Track frame offsets:
#	150
#	20374
#	41482
#
# Disc length: 738 seconds
#
# Revision: 3
# Processed by: cddbd v1.5.2PL0 Copyright (c) Steve Scherf et al.
# Submitted via: CDex 1.70beta3
#
DISCID=1902e003
DTITLE=坂本慎太郎 - まともがわからない
DYEAR=2013
DGENRE=J-Rock
TTITLE0=まともがわからない
TTITLE1=死者より
TTITLE2=悲しみのない世界
EXTD=YEAR: 2013
EXTT0=
EXTT1=
EXTT2=
PLAYORDER=
